<?xml version="1.0" encoding="UTF-8"?>
<svg id="Layer_1" data-name="Layer 1" xmlns="http://www.w3.org/2000/svg" viewBox="0 0 1584 672">
  <defs>
    <style>
      .cls-1 {
        fill: #fff;
      }
    </style>
  </defs>
  <path d="M0,672V0h1584v672H0ZM511.72,148v272s56.28,0,56.28,0V148s-56.28,0-56.28,0ZM751.17,374.93l18.48,44.85,58.28-.09-121.67-267.77c-.7-2.88-2.21-3.99-4.83-3.78-1.34.11-2.62,1.95-3.24,4.26l-116.76,267.12,53.62.29,17.9-45.02,98.21.13ZM1055.8,301.56l.15,110.32-.16,7.97,53.69-.18.02-271.04c-3.57-1.34-5.57.26-8.06,3.04l-127.23,142-132-144.69c-.88-.97-4.74-.77-5.22-.1l-.02,270.86,53.56-.02-.11-123.54.45-21.03,77.24,91.63c1.9,2.25,6.02,4.82,8.61,1.76l78.64-93,.45,26.01ZM225.75,480.28h-7.17s.02,46.37.02,46.37h7.17s-.02-46.37-.02-46.37ZM275.48,527.73l.17-47.2-6.95.04.18,31.26-29.99-32.53-.09,47.34,6.83-.1-.14-31.09,29.98,32.29ZM304.63,526.43l-.1-39.55,13.72-.17-.69-6.15h-33.64s.07,6.25.07,6.25l13.49.06.05,39.8,7.09-.25ZM353.08,505.91l-.06-6.1-19.47-.1.05-12.97,21.95-.03-.02-6.21-29.02.12v45.96s29.99,0,29.99,0l-.16-6.35-22.75.1.04-14.4,19.44-.02ZM394.93,520.26h-21.26s0-39.74,0-39.74l-7.1.08.11,46.01,28.34.03-.09-6.38ZM431.79,520.24h-21.04s0-39.41,0-39.41l-7.07-.37.02,46.15h28.13s-.04-6.37-.04-6.37ZM467.27,505.95l-.07-6.09-19.47-.14.14-12.97,21.96-.08-.27-6.18-28.94.05.12,46.03,30.02.03v-6.32s-22.94.04-22.94.04l.04-14.39,19.4.02ZM514.54,512.99c-4.41,7.1-11.98,8.94-18.74,6.75-7.04-2.27-10.89-9.02-10.71-16.71s4.14-13.75,10.67-15.85,13.58-.13,18.45,5.85l4.7-4.55c-6.72-8.8-17.72-10.66-27.43-6.62-8.68,3.61-14.25,13.01-13.67,23.13.79,13.64,11.7,23.18,25.23,22.09,7.22-.58,13.25-3.87,16.86-10.53l-5.36-3.56ZM546.81,526.39l-.04-39.51,13.38-.12c.29-1.62.02-5.02-.73-6.22l-32.94-.03-.24,6.35,13.42.04.04,39.74,7.12-.24ZM575.58,480.58l-7.15.08.09,30.71c.03,9.41,7.43,15.28,16.44,15.78,9.96.56,18.34-5.81,18.36-16.16l.05-30.57-7.11.41.04,30.18c0,6.36-4.97,10.02-10.95,9.62-5.4-.36-9.7-3.78-9.71-9.63l-.05-30.43ZM640.04,519.64l2.59,6.95h7.51s-20.59-47.15-20.59-47.15l-19.82,47.18,7.01-.22,2.93-6.9,20.35.14ZM742.92,519.65l2.62,6.91,7.52.06-20.61-47.29-19.97,47.06,6.83.21,3.35-7.17,20.26.22ZM776.5,527.12c7.1-.54,11.73-5.12,12.52-10.69.86-6.14-1.68-11.36-7.32-14.14l-10.72-5.27c-3.42-1.68-4.47-7.05-1.34-9.36,3.81-2.82,8.6-1.59,11.58,2.62l5.33-3.46c-4.52-7.69-14.74-9.23-21.64-3.9-3.63,2.81-4.71,7.66-3.75,12.25.63,2.99,3.54,6.85,7.09,8.47l9.82,4.48c1.55.71,3.48,3.26,3.96,4.75s-.52,5.3-2.02,6.27c-5.38,3.49-13.07,1.28-16.04-5.09l-5.81,3.43c3.59,7.04,10.25,10.26,18.34,9.64ZM814.5,527.14c7.17-.38,11.88-5.03,12.72-10.71.88-5.97-1.78-11.49-7.49-14.19l-10.2-4.82c-3.28-1.55-5.12-6.35-2.25-9.22,3.4-3.41,9.06-2.51,11.94,2.13l5.47-3.54c-4.68-7.67-14.75-9.31-21.78-3.81-3.21,2.51-4.29,7.23-3.75,11.31.39,2.92,3.13,7.36,6.46,8.93l10.38,4.89c3.23,1.52,4.98,4.73,3.99,8.27-.69,2.48-3.84,4.45-6.96,4.46-4.76,0-7.66-1.84-10.53-6.21-1.46.49-4.34,2.02-5.68,3.01,3.37,7.16,9.87,9.92,17.67,9.51ZM895.56,526.46l-.03-39.62,13.42-.05v-6.31s-34.12.06-34.12.06l.1,6.29h13.5s0,39.72,0,39.72l7.12-.09ZM978.02,496.93l.21,29.69h6.65s-.04-47.15-.04-47.15l-22.33,26.47-22.58-26.52-.07,47.22h6.82s.23-29.35.23-29.35l15.73,18.35,15.38-18.71ZM1023.4,519.52l3,7.17,7.23-.35-20.41-46.98-19.83,47,6.92.26,2.79-6.99,20.31-.11ZM1078.51,527.47l.28-46.98-6.84.05.08,31.08-30.06-32.18-.08,47.21,6.69-.1.19-30.35,29.73,31.27ZM1117.15,519.59l2.85,7.14,7.38-.33-20.55-47.09-19.85,47.25,7.01-.08,3.03-6.89h20.14ZM1166.87,509.67l-.37,7.86c-7.62,4.62-17.64,4.72-23.78-2.34-5.57-6.39-5.51-16.95,0-23.43,6.26-7.39,17.07-6.95,23.84-.76l4.52-4.82c-7.6-7.13-18.46-8.28-27.57-3.52-8.25,4.31-13.09,13.63-11.96,23.77,1.26,11.32,9.87,19.87,21.42,20.65,7.48.5,14.36-1.36,20.27-6.18l.16-17.27-18.63-.02.05,5.96,12.06.11ZM1191.89,505.83l19.71.09-.13-6.09-19.66-.07.05-13.02,22.12.04-.28-6.26-28.89.12v45.93s30.14.04,30.14.04v-6.36s-23.07.04-23.07.04l.02-14.47ZM1263,496.79l.19,29.85h6.71s-.07-47.25-.07-47.25l-22.43,26.65-22.51-26.64v47.26s6.84-.02,6.84-.02l.19-29.35,15.4,18.53,15.68-19.04ZM1309.18,505.98l-.06-6.16-19.55-.05.03-13.03,21.93.05-.09-6.24-28.93-.05.02,46.06,29.98.06.03-6.3h-22.92s.02-14.46.02-14.46l19.54.12ZM1359.33,527.83l.27-47.3-6.93.05.06,31.17-29.94-32.43-.15,47.32,6.89-.14-.22-30.77,30.01,32.09ZM1388.46,526.54l-.04-39.7,13.56-.03-.41-6.28-33.83.02.15,6.31h13.43s.04,39.71.04,39.71l7.1-.03ZM686.69,520.26l-21.44-.04.02-39.46-7.06.1.04,45.76,28.31-.03.13-6.34ZM864.15,505.95l-.04-6.11-19.39-.09.09-13.01h21.92s-.02-6.15-.02-6.15h-29.03s.07,46.04.07,46.04l29.78-.04.15-6.33-22.91.05-.02-14.41,19.41.05Z"/>
  <g>
    <polygon class="cls-1" points="1263 496.79 1247.32 515.83 1231.91 497.3 1231.73 526.65 1224.87 526.67 1224.89 479.4 1247.4 506.04 1269.83 479.39 1269.9 526.63 1263.19 526.65 1263 496.79"/>
    <polygon class="cls-1" points="978.02 496.93 962.63 515.64 946.9 497.29 946.67 526.64 939.85 526.64 939.92 479.42 962.5 505.94 984.84 479.47 984.88 526.63 978.23 526.62 978.02 496.93"/>
    <polygon class="cls-1" points="1078.51 527.47 1048.78 496.2 1048.58 526.55 1041.89 526.65 1041.98 479.44 1072.03 511.62 1071.95 480.54 1078.79 480.49 1078.51 527.47"/>
    <polygon class="cls-1" points="275.48 527.73 245.5 495.45 245.63 526.54 238.8 526.63 238.89 479.29 268.88 511.83 268.69 480.57 275.65 480.53 275.48 527.73"/>
    <polygon class="cls-1" points="1359.33 527.83 1329.32 495.74 1329.55 526.51 1322.65 526.65 1322.8 479.33 1352.74 511.76 1352.68 480.58 1359.61 480.53 1359.33 527.83"/>
    <path class="cls-1" d="M1166.87,509.67l-12.06-.11-.05-5.96,18.63.02-.16,17.27c-5.91,4.83-12.79,6.69-20.27,6.18-11.55-.78-20.16-9.33-21.42-20.65-1.13-10.14,3.72-19.46,11.96-23.77,9.1-4.76,19.97-3.62,27.57,3.52l-4.52,4.82c-6.78-6.19-17.58-6.63-23.84.76-5.5,6.49-5.56,17.04,0,23.43,6.15,7.06,16.16,6.96,23.78,2.34l.37-7.86Z"/>
    <polygon class="cls-1" points="1309.18 505.98 1289.64 505.86 1289.62 520.31 1312.53 520.32 1312.5 526.62 1282.53 526.56 1282.51 480.5 1311.44 480.55 1311.53 486.8 1289.6 486.75 1289.57 499.78 1309.12 499.83 1309.18 505.98"/>
    <polygon class="cls-1" points="467.27 505.95 447.87 505.93 447.83 520.32 470.76 520.27 470.77 526.6 440.75 526.57 440.63 480.54 469.57 480.49 469.84 486.67 447.88 486.75 447.74 499.72 467.2 499.86 467.27 505.95"/>
    <polygon class="cls-1" points="353.08 505.91 333.63 505.94 333.6 520.33 356.35 520.24 356.51 526.59 326.51 526.59 326.52 480.62 355.54 480.5 355.55 486.72 333.6 486.75 333.55 499.72 353.02 499.82 353.08 505.91"/>
    <path class="cls-1" d="M575.58,480.58l.05,30.43c0,5.85,4.31,9.27,9.71,9.63,5.98.4,10.96-3.26,10.95-9.62l-.04-30.18,7.11-.41-.05,30.57c-.02,10.36-8.4,16.72-18.36,16.16-9-.5-16.41-6.37-16.44-15.78l-.09-30.71,7.15-.08Z"/>
    <polygon class="cls-1" points="1191.89 505.83 1191.88 520.3 1214.94 520.26 1214.94 526.61 1184.82 526.57 1184.81 480.64 1213.7 480.52 1213.98 486.78 1191.87 486.74 1191.82 499.76 1211.47 499.84 1211.6 505.92 1191.89 505.83"/>
    <polygon class="cls-1" points="864.15 505.95 844.74 505.9 844.76 520.31 867.68 520.25 867.53 526.58 837.75 526.62 837.68 480.59 866.71 480.58 866.73 486.75 844.81 486.74 844.72 499.75 864.11 499.84 864.15 505.95"/>
    <path class="cls-1" d="M514.54,512.99l5.36,3.56c-3.61,6.66-9.64,9.95-16.86,10.53-13.53,1.09-24.45-8.45-25.23-22.09-.58-10.12,4.99-19.52,13.67-23.13,9.71-4.04,20.71-2.18,27.43,6.62l-4.7,4.55c-4.87-5.99-11.71-8.02-18.45-5.85s-10.49,8.54-10.67,15.85c-.19,7.69,3.67,14.44,10.71,16.71,6.76,2.18,14.33.35,18.74-6.75Z"/>
    <path class="cls-1" d="M742.92,519.65l-20.26-.22-3.35,7.17-6.83-.21,19.97-47.06,20.61,47.29-7.52-.06-2.62-6.91ZM740.13,513.34l-7.72-19.14-7.43,19.23,15.15-.09Z"/>
    <path class="cls-1" d="M1117.15,519.59h-20.14s-3.03,6.89-3.03,6.89l-7.01.08,19.85-47.25,20.55,47.09-7.38.33-2.85-7.14ZM1114.63,513.52l-7.75-19.14-7.48,19.07,15.24.08Z"/>
    <path class="cls-1" d="M640.04,519.64l-20.35-.14-2.93,6.9-7.01.22,19.82-47.18,20.59,47.15h-7.51s-2.59-6.96-2.59-6.96ZM637.25,513.46l-7.59-18.97-7.46,18.97h15.05Z"/>
    <path class="cls-1" d="M1023.4,519.52l-20.31.11-2.79,6.99-6.92-.26,19.83-47,20.41,46.98-7.23.35-3-7.17ZM1020.87,513.38l-7.59-18.99-7.54,19.04,15.13-.05Z"/>
    <path class="cls-1" d="M776.5,527.12c-8.09.61-14.75-2.61-18.34-9.64l5.81-3.43c2.97,6.37,10.66,8.59,16.04,5.09,1.5-.98,2.5-4.78,2.02-6.27s-2.41-4.04-3.96-4.75l-9.82-4.48c-3.54-1.62-6.46-5.47-7.09-8.47-.96-4.58.11-9.44,3.75-12.25,6.9-5.33,17.12-3.79,21.64,3.9l-5.33,3.46c-2.98-4.22-7.77-5.44-11.58-2.62-3.13,2.32-2.08,7.68,1.34,9.36l10.72,5.27c5.65,2.78,8.19,8,7.32,14.14-.79,5.57-5.42,10.16-12.52,10.69Z"/>
    <path class="cls-1" d="M814.5,527.14c-7.8.41-14.3-2.35-17.67-9.51,1.34-1,4.22-2.52,5.68-3.01,2.87,4.37,5.76,6.21,10.53,6.21,3.11,0,6.26-1.98,6.96-4.46.99-3.53-.76-6.74-3.99-8.27l-10.38-4.89c-3.33-1.57-6.07-6.01-6.46-8.93-.54-4.08.54-8.8,3.75-11.31,7.03-5.51,17.1-3.86,21.78,3.81l-5.47,3.54c-2.88-4.64-8.54-5.54-11.94-2.13-2.86,2.87-1.03,7.67,2.25,9.22l10.2,4.82c5.71,2.7,8.37,8.22,7.49,14.19-.84,5.68-5.56,10.33-12.72,10.71Z"/>
    <polygon class="cls-1" points="895.56 526.46 888.44 526.56 888.44 486.84 874.94 486.84 874.83 480.55 908.95 480.49 908.96 486.79 895.54 486.85 895.56 526.46"/>
    <polygon class="cls-1" points="304.63 526.43 297.54 526.68 297.49 486.88 284 486.82 283.92 480.55 317.56 480.57 318.25 486.71 304.53 486.88 304.63 526.43"/>
    <path class="cls-1" d="M546.81,526.39l-7.12.24-.04-39.74-13.42-.04.24-6.35,32.94.03c.75,1.2,1.02,4.6.73,6.22l-13.38.12.04,39.51Z"/>
    <polygon class="cls-1" points="1388.46 526.54 1381.37 526.57 1381.33 486.87 1367.9 486.87 1367.75 480.55 1401.58 480.53 1401.99 486.82 1388.42 486.84 1388.46 526.54"/>
    <polygon class="cls-1" points="394.93 520.26 395.01 526.63 366.67 526.61 366.56 480.6 373.67 480.52 373.67 520.26 394.93 520.26"/>
    <polygon class="cls-1" points="686.69 520.26 686.56 526.6 658.25 526.63 658.21 480.86 665.27 480.76 665.25 520.22 686.69 520.26"/>
    <polygon class="cls-1" points="431.79 520.24 431.82 526.61 403.69 526.61 403.67 480.46 410.74 480.83 410.75 520.24 431.79 520.24"/>
    <rect class="cls-1" x="218.59" y="480.28" width="7.17" height="46.37"/>
    <polygon points="740.13 513.34 724.98 513.43 732.42 494.2 740.13 513.34"/>
    <polygon points="1114.63 513.52 1099.39 513.45 1106.87 494.38 1114.63 513.52"/>
    <polygon points="637.25 513.46 622.2 513.45 629.66 494.48 637.25 513.46"/>
    <polygon points="1020.87 513.38 1005.74 513.43 1013.28 494.39 1020.87 513.38"/>
  </g>
  <g>
    <g>
      <path class="cls-1" d="M1057.3,301.52l-.45-26.01-78.64,93c-2.59,3.06-6.71.49-8.61-1.76l-77.24-91.63-.45,21.03.11,123.54-53.56.02.02-270.86c.48-.67,4.34-.87,5.22.1l132,144.69,127.23-142c2.49-2.78,4.49-4.38,8.06-3.04l-.02,271.04-53.69.18.16-7.97-.15-110.32ZM1059.12,269.54l.29,148.24,49.36-.15-.06-268.91-132.97,148.1-135.13-147.96-.12,268.77,49.26.16.02-149.09,81.81,97.03c.83.99,2.36,2.06,3.22,1.95.69-.09,2.32-1.11,2.84-1.73l81.47-96.41Z"/>
      <path d="M1059.12,269.54l-81.47,96.41c-.53.62-2.15,1.64-2.84,1.73-.86.11-2.38-.96-3.22-1.95l-81.81-97.03-.02,149.09-49.26-.16.12-268.77,135.13,147.96,132.97-148.1.06,268.91-49.36.15-.29-148.24Z"/>
    </g>
    <g>
      <path class="cls-1" d="M752.67,374.9l-98.21-.13-17.9,45.02-53.62-.29,116.76-267.12c.62-2.31,1.9-4.15,3.24-4.26,2.62-.22,4.13.89,4.83,3.78l121.67,267.77-58.28.09-18.48-44.85ZM746.83,372.93l7.5-.09,18.35,44.95,53.29-.24-122.17-268.86-117.49,268.96,48.68.07,17.83-45.06,15.75.21,78.27.06Z"/>
      <path class="cls-1" d="M513.21,147.97h56.29s0,272,0,272h-56.29s0-272,0-272ZM515.37,149.97v268h52.13V149.97h-52.13Z"/>
      <path d="M746.83,372.93l-78.27-.06-15.75-.21-17.83,45.06-48.68-.07,117.49-268.96,122.17,268.86-53.29.24-18.35-44.95-7.5.09ZM737.34,330.18l-34.23-84-33.72,84.02,67.95-.02Z"/>
      <rect x="515.37" y="149.97" width="52.13" height="268"/>
      <path class="cls-1" d="M737.34,330.18l-67.95.02,33.72-84.02,34.23,84ZM733.92,327.94l-30.78-75.78-30.41,75.86,61.19-.09Z"/>
      <polygon points="733.92 327.94 672.73 328.02 703.14 252.16 733.92 327.94"/>
    </g>
  </g>
</svg>